<?xml version="1.0" encoding="utf-8"?>
<!DOCTYPE svg PUBLIC "-//W3C//DTD SVG 1.1//EN" "http://www.w3.org/Graphics/SVG/1.1/DTD/svg11.dtd">
<svg version="1.1" xmlns="http://www.w3.org/2000/svg" xmlns:xlink="http://www.w3.org/1999/xlink" x="0px" y="0px" width="570px"
	 height="240px" viewBox="0 0 570 240" enable-background="new 0 0 570 240" xml:space="preserve">
<g id="Twitter">
	<path fill="#282828" d="M40.96,33.731c-0.008-0.004-0.017-0.015-0.026-0.022c-0.52-0.463-1.129-0.685-1.832-0.658l-0.021-0.047
		c0.005-0.005,0.008-0.005,0.013-0.005c0.637-0.139,1.015-0.282,1.127-0.438c0.039-0.125-0.009-0.195-0.147-0.212
		c-0.32,0.039-0.615,0.104-0.88,0.203c0.334-0.203,0.465-0.346,0.391-0.419c-0.329,0.008-0.684,0.169-1.057,0.485
		c0.139-0.226,0.191-0.347,0.157-0.369c-0.179,0.117-0.334,0.243-0.468,0.376c-0.283,0.3-0.507,0.576-0.681,0.828l-0.008,0.021
		c-0.514,0.78-0.647,1.215-0.647,1.215l-0.151,0.404c0,0,0.423,0.315,0.8,0.667c0.412,0.384,1.276,1.726,1.276,1.726
		c-0.655-0.94-2.775-2.382-3.279-2.667c-0.456-0.281-0.988-0.549-1.604-0.81c-0.67-0.329-1.352-0.602-2.04-0.814
		c-0.004,0.732,0.373,1.317,1.123,1.742v0.013c-0.266-0.005-0.521,0.034-0.767,0.108c0.047,0.68,0.554,1.147,1.517,1.407
		l-0.005,0.013c-0.377-0.021-0.688,0.105-0.931,0.364c0.315,0.59,0.875,0.871,1.685,0.849c-0.16,0.079-0.286,0.165-0.368,0.261
		c-0.147,0.147-0.195,0.321-0.147,0.52c0.173,0.299,0.485,0.438,0.944,0.416l0,0l0.025,0.031c-0.003,0.003-0.008,0.008-0.012,0.013
		c-0.793,0.78-1.751,1.13-2.873,1.057l-0.017,0.009c-0.684-0.005-1.417-0.316-2.209-0.939c0.797,1.09,1.854,1.878,3.164,2.373
		c0.478,0.152,0.958,0.257,1.438,0.318c0.187,0.024-1.63,0.774-1.442,0.784c0.064,0.003,0.555-0.011,0.861-0.111
		c0.049-0.016-0.013,0.593,0.038,0.575c0.062-0.021,0.349-0.723,0.414-0.744c0.646-0.217,1.188-0.44,1.309-0.442
		c0.625-0.016,1.249-0.108,1.874-0.276h0.026c1.451-0.398,2.68-1.218,3.694-2.456c0.468-0.65,0.763-1.229,0.879-1.822
		c0.759,0.026,1.304-0.019,1.642-0.46l-0.008-0.156c-0.251,0.086-0.746,0-1.479-0.144v-0.078c0-0.004,0-0.004,0.005,0
		c0.74-0.351,1.029-0.577,1.181-0.985c-0.661,0.004-1.776-0.033-2.403-0.003c-0.026-0.19,0.881-0.439,0.881-0.439
		S41.415,34.168,40.96,33.731z"/>
</g>
<g id="Facebook">
	<path fill="#282828" d="M92.941,42.938L93,37h2v-2h-2l-0.04-0.762c0.017-0.347,0.06-0.478,0.502-0.478l1.495-0.011L95,32h-2
		c-1.232,0.001-2.002,1.13-2,2.615V35h-2l0.02,1.981l2.007-0.003l0.003,5.964L92.941,42.938z"/>
</g>
<g id="LinkedIn">
	<g>
		<g>
			<path fill="#282828" d="M143,43h2v-8h-2V43z M144.035,31.996c-0.626,0-1.035,0.451-1.035,1.039c0,0.575,0.396,1.04,1.01,1.04
				c0.651,0,1.048-0.465,1.048-1.04C145.044,32.447,144.661,31.996,144.035,31.996z M150.493,34.876
				c-1.152,0-2.187,0.661-2.468,1.11h-0.042l-0.017-0.956h-1.962L146,43h2v-5c0-0.197,0.043-0.449,0.085-0.594
				c0.154-0.549,1.08-0.818,1.67-0.818c0.772,0,1.245,0.621,1.245,1.506V43h2v-5.159C153,35.818,151.897,34.876,150.493,34.876z"/>
		</g>
	</g>
</g>
<g id="Pinterest">
	<path fill="#282828" d="M203.274,31c-3.959,0-5.335,2.602-5.335,4.723c0,1.284,0.487,2.426,1.528,2.852
		c0.172,0.07,0.325,0.003,0.375-0.187c0.034-0.132,0.116-0.461,0.152-0.6c0.05-0.187,0.031-0.252-0.108-0.416
		c-0.3-0.354-0.65-0.813-0.65-1.464c0-1.886,0.939-3.693,3.833-3.693c2.005,0,3.264,1.343,3.264,2.979
		c0,2.152-0.757,3.969-2.171,3.969c-0.781,0-1.719-0.646-1.531-1.438c0.225-0.946,0.659-1.967,0.659-2.649
		c0-0.611-0.329-1.121-1.007-1.121c-0.799,0-1.44,0.827-1.44,1.932c0,0.705,0.239,1.182,0.239,1.182s-0.817,3.462-0.961,4.068
		c-0.285,1.207-0.043,2.687-0.022,2.837c0.012,0.089,0.125,0.109,0.177,0.042c0.074-0.096,1.025-1.269,1.349-2.442
		c0.091-0.332,0.525-2.052,0.525-2.052c0.259,0.494,1.017,0.931,1.823,0.931c2.4,0,4.028-2.188,4.028-5.117
		C208,33.122,206.125,31,203.274,31z"/>
</g>
<g id="Dribbble">
	<path fill-rule="evenodd" clip-rule="evenodd" fill="#282828" d="M262.817,35.779c-0.077-0.379-0.193-0.753-0.344-1.11
		c-0.148-0.351-0.332-0.688-0.544-1.003c-0.211-0.313-0.454-0.607-0.721-0.874c-0.267-0.268-0.562-0.51-0.874-0.721
		c-0.316-0.214-0.654-0.396-1.003-0.545c-0.358-0.15-0.73-0.267-1.111-0.344c-0.388-0.08-0.788-0.12-1.188-0.12
		c-0.399,0-0.8,0.04-1.19,0.12c-0.378,0.077-0.752,0.193-1.108,0.344c-0.351,0.148-0.688,0.331-1.004,0.545
		c-0.312,0.211-0.607,0.454-0.874,0.721c-0.267,0.267-0.508,0.561-0.72,0.874c-0.213,0.315-0.397,0.652-0.545,1.003
		c-0.151,0.357-0.266,0.731-0.344,1.11c-0.08,0.389-0.121,0.789-0.121,1.189c0,0.4,0.041,0.801,0.121,1.189
		c0.078,0.38,0.193,0.753,0.344,1.11c0.148,0.351,0.332,0.689,0.545,1.004c0.211,0.312,0.453,0.606,0.72,0.874
		c0.267,0.267,0.562,0.509,0.874,0.72c0.316,0.213,0.654,0.397,1.004,0.544c0.356,0.151,0.73,0.267,1.108,0.345
		c0.39,0.08,0.791,0.121,1.19,0.121c0.4,0,0.801-0.041,1.188-0.121c0.381-0.078,0.753-0.193,1.111-0.345
		c0.349-0.147,0.687-0.331,1.003-0.544c0.312-0.211,0.607-0.454,0.874-0.72c0.267-0.268,0.509-0.561,0.721-0.874
		c0.212-0.315,0.396-0.654,0.544-1.004c0.151-0.356,0.267-0.73,0.344-1.11c0.08-0.388,0.121-0.789,0.121-1.189
		C262.938,36.568,262.897,36.168,262.817,35.779z M261.845,36.92c-0.07-0.015-1.698-0.366-3.354-0.157
		c-0.034-0.083-0.069-0.166-0.104-0.249c-0.101-0.236-0.208-0.383-0.32-0.613c1.901-0.776,2.73-1.806,2.74-1.82
		C261.483,34.901,261.835,35.778,261.845,36.92z M260.012,33.211c-0.012,0.02-0.498,1.091-2.316,1.773
		c-0.823-1.513-1.727-2.6-1.799-2.695c0.363-0.088,0.744-0.136,1.135-0.136C258.251,32.153,259.164,32.465,260.012,33.211z
		 M255.878,32.293L255.878,32.293c-0.001,0-0.006,0.002-0.015,0.004C255.868,32.295,255.874,32.295,255.878,32.293z M254.92,32.699
		c0.065,0.086,0.926,1.122,1.76,2.603c-2.312,0.615-4.232,0.448-4.36,0.445C252.633,34.255,253.578,33.333,254.92,32.699z
		 M252.216,36.939c0-0.051,0.002-0.102,0.004-0.151c0.085,0.002,2.436,0.256,4.915-0.486c0.138,0.271,0.184,0.402,0.304,0.676
		c-0.064,0.017-0.012,0.008-0.074,0.029c-2.599,0.84-3.774,3.321-3.774,3.321s0.001,0.001,0.001,0.002
		C252.827,39.476,252.216,38.176,252.216,36.939z M257.031,41.869c-1.22,0-1.919-0.185-2.752-0.874
		c0.064,0.051,0.108,0.084,0.108,0.084s0.608-2.042,3.35-3.123c0.011-0.004,0.078,0.021,0.032-0.01c0.678,1.761,0.929,3.092,1,3.514
		C258.248,41.791,257.73,41.869,257.031,41.869z M259.722,40.962c-0.049-0.291-0.276-1.504-0.908-3.239
		c1.554-0.249,2.872,0.235,2.972,0.268C261.572,39.332,260.804,40.232,259.722,40.962z"/>
</g>
<g id="Tumblr">
	<path fill-rule="evenodd" clip-rule="evenodd" fill="#282828" d="M308.541,34.292v1.404h1.42v4.285
		c0.016,1.1,0.854,1.914,2.528,1.914s2.791-0.43,2.791-0.43l-0.281-1.675c-0.772,0.412-1.691,0.608-2.287,0.401
		c-0.512-0.178-0.76-0.664-0.76-0.991c0-1.181,0-3.519,0-3.519h2.882v-1.675h-2.882v-2.776h-1.162c0,0.399-0.119,1.074-0.506,1.646
		C309.759,33.652,308.906,34.18,308.541,34.292z"/>
</g>
<g id="Flickr">
	<g>
		<g>
			<path fill="#282828" d="M371.73,33.125c-1.99,0-3.608,1.532-3.782,3.479c-0.174-1.947-1.791-3.479-3.781-3.479
				c-2.109,0-3.818,1.709-3.818,3.817c0,2.109,1.709,3.817,3.818,3.817c1.99,0,3.607-1.531,3.781-3.479
				c0.174,1.948,1.792,3.479,3.782,3.479c2.11,0,3.818-1.708,3.818-3.817C375.549,34.833,373.841,33.125,371.73,33.125z
				 M371.73,39.373c-1.34,0-2.43-1.09-2.43-2.431c0-1.34,1.09-2.431,2.43-2.431c1.341,0,2.432,1.091,2.432,2.431
				C374.162,38.282,373.071,39.373,371.73,39.373z"/>
		</g>
	</g>
</g>
<g id="Vimeo">
	<path fill-rule="evenodd" clip-rule="evenodd" fill="#282828" d="M416.523,34.842l0.559,0.745c0.885-0.512,1.211-1.024,1.63,0.093
		c0.419,1.117,1.117,3.911,1.583,5.074c0.466,1.165,1.443,1.63,2.653,0.885c0.546-0.336,1.698-1.152,2.747-2.468
		c1.275-1.598,2.421-3.777,2.421-4.749c0-1.769-0.539-2.374-1.656-2.374c-1.118,0-2.021,0.358-2.672,2.267
		c0.791-0.466,1.597-0.523,1.597,0.734c0,1.088-2.295,4.008-2.614,4.403c-0.332,0.412-0.515,0.034-0.671-0.358
		c-0.188-0.466-1.232-5.33-1.418-5.982c-0.188-0.652-1.117-1.303-1.909-0.652C417.981,33.113,417.27,34.284,416.523,34.842z"/>
</g>
<g id="Delicious">
	<path id="Delicious_3_" fill="#282828" d="M482.489,34.669c-0.452-1.066-1.204-1.971-2.15-2.611
		c-0.474-0.319-0.996-0.573-1.554-0.747c-0.558-0.173-1.15-0.267-1.765-0.267c-0.818,0-1.6,0.166-2.31,0.466
		c-1.064,0.451-1.971,1.203-2.611,2.149c-0.318,0.474-0.572,0.997-0.746,1.555c-0.174,0.557-0.268,1.15-0.268,1.764
		c0,0.818,0.167,1.6,0.467,2.31c0.452,1.065,1.203,1.971,2.151,2.61c0.474,0.32,0.994,0.573,1.552,0.747
		c0.559,0.174,1.151,0.267,1.765,0.267c0.819,0,1.601-0.166,2.311-0.466c1.065-0.451,1.97-1.203,2.611-2.149
		c0.318-0.474,0.572-0.997,0.745-1.555c0.174-0.557,0.268-1.15,0.268-1.764C482.955,36.161,482.789,35.38,482.489,34.669z
		 M481.749,38.977c-0.391,0.919-1.041,1.704-1.858,2.257c-0.409,0.277-0.86,0.496-1.343,0.646c-0.481,0.15-1.02-0.111-1.552-0.109
		v0.34v-5.108h-5.107c0-0.001,0-0.022,0-0.024c0-0.71,0.145-1.384,0.403-1.998c0.392-0.919,1.04-1.705,1.86-2.258
		c0.408-0.276,0.861-0.495,1.342-0.645c0.481-0.15,0.994-0.232,1.526-0.232v5.133h5.132
		C482.152,37.689,482.009,38.363,481.749,38.977z"/>
</g>
<g id="Google">
	<path id="Google_3_" fill="#282828" d="M537,30.513h-3.65c-0.956,0-2.161,0.141-3.17,0.972c-0.763,0.656-1.135,1.558-1.135,2.372
		c0,1.38,1.063,2.779,2.941,2.779c0.178,0,0.371-0.018,0.567-0.035c-0.089,0.212-0.178,0.389-0.178,0.69
		c0,0.549,0.283,0.885,0.531,1.203c-0.796,0.053-2.285,0.142-3.384,0.813c-1.045,0.621-1.365,1.522-1.365,2.16
		c0,1.31,1.241,2.532,3.811,2.532c3.047,0,4.66-1.682,4.66-3.347c0-1.22-0.709-1.822-1.489-2.477l-0.638-0.496
		c-0.194-0.16-0.459-0.371-0.459-0.761c0-0.389,0.265-0.638,0.495-0.868c0.743-0.583,1.488-1.203,1.488-2.513
		c0-1.346-0.852-2.054-1.259-2.39h1.1L537,30.513z M535.442,41.345c0,1.097-0.904,1.911-2.605,1.911
		c-1.896,0-3.118-0.902-3.118-2.158c0-1.258,1.134-1.681,1.522-1.824c0.745-0.248,1.701-0.283,1.86-0.283
		c0.178,0,0.266,0,0.409,0.018C534.857,39.963,535.442,40.442,535.442,41.345z M534.024,35.646
		c-0.284,0.283-0.764,0.495-1.206,0.495c-1.522,0-2.214-1.965-2.214-3.15c0-0.461,0.088-0.938,0.389-1.31
		c0.285-0.354,0.78-0.584,1.241-0.584c1.471,0,2.233,1.983,2.233,3.257C534.468,34.671,534.431,35.237,534.024,35.646z"/>
</g>
<g id="Forrst">
	<polygon id="Forrst_3_" fill="#282828" points="32,98.979 36.215,98.979 36.215,98.612 36.215,97.062 34.812,96.104 35.258,95.182 
		36.215,95.835 36.215,93.921 37.524,93.921 37.5,94.708 38.562,94.375 38.938,95.229 37.524,95.784 37.524,96.473 39.521,95.604 
		39.896,96.542 37.524,97.646 37.524,98.979 40.132,98.979 40.132,99 42.002,99 36.997,87 	"/>
</g>
<g id="Hi5">
	<path id="hi5" fill="#282828" d="M101.228,91.756l0.193-3.583h-5.712l-1.044,5.581l0.028,0.003
		c-0.087,0.176-0.153,0.367-0.193,0.569v0.897h0.688v1.595c0.706,0.759,1.49,1.312,3.145,1.312c2.611,0,3.62-1.912,3.62-4.274
		C101.953,93.121,101.706,92.363,101.228,91.756z M98.406,97.232c-2.117,0-2.981-1.35-2.981-2.418c0-0.72,0.494-1.377,1.367-1.377
		c0.606,0,0.914,0.401,0.914,0.874c0,0.257-0.103,0.36-0.103,0.565c0,0.288,0.134,0.483,0.617,0.483
		c0.678,0,1.007-0.709,1.007-1.418c0-0.627-0.247-1.1-0.781-1.1c-0.391,0-0.596,0.154-0.678,0.401l-1.973-0.257l0.736-3.911h4.015
		l-0.109,1.948h-2.248l-0.084,0.454c0,0,0.208-0.038,0.523-0.053c1.644,0,2.497,1.264,2.497,2.436
		C101.125,95.584,100.697,97.232,98.406,97.232z M95,94.325l0.25-3.137h-0.453l0.015-1.937l-2.655,0.002v1.966L91.1,91.216
		l-0.006,2.556h0.688v0.553h-0.688v3.613h4.995v-3.613H95z M93,90h1v1h-1V90z M95.188,97.037h-3.195v-1.812h0.688v-2.354h-0.688V92
		H94.5v3.225h0.688V97.037z M91.994,97.037v-1.812h0.674v-0.9h-0.688v-1.319c0-1.539-0.57-3.005-1.985-3.005
		c-0.412,0-0.788,0.08-1.124,0.215v-2.087h-4.824v3.353h0.678v2.844h-0.678v3.613h8.622v-0.9H91.994z M91.768,97.037h-3.088v-1.812
		h0.308v-1.838c0-0.473-0.333-0.762-0.61-0.762c-0.268,0-0.408,0.281-0.408,1.192v1.408h0.298v1.812h-3.321v-1.812h0.679V90.58
		h-0.679v-1.552h3.023v3.156c0.35-0.658,0.887-1.153,1.843-1.153c0.915,0,1.267,0.946,1.267,1.974v2.22h0.688V97.037z"/>
</g>
<g id="Last.fm">
	<path id="last.fm_3_" fill="#282828" d="M151.78,97.695c-1.657-0.006-2.541-0.823-3.155-2.261l-0.175-0.393l-1.514-3.474
		c-0.501-1.23-1.747-2.061-3.152-2.061c-1.901,0-3.444,1.553-3.444,3.469c0,1.916,1.543,3.469,3.444,3.469
		c1.326,0,2.48-0.755,3.056-1.863l0.612,1.422c-0.869,1.067-2.19,1.746-3.668,1.746c-2.619,0-4.742-2.136-4.742-4.774
		c0-2.637,2.123-4.775,4.742-4.775c1.977,0,3.573,1.062,4.383,2.946c0.062,0.146,0.857,2.02,1.552,3.615
		c0.43,0.988,0.796,1.642,1.985,1.683c1.168,0.041,1.97-0.676,1.97-1.581c0-0.884-0.611-1.096-1.644-1.442
		c-1.854-0.615-2.813-1.233-2.813-2.715c0-1.445,0.977-2.409,2.563-2.409c1.034,0,1.78,0.463,2.297,1.386l-1.014,0.522
		c-0.383-0.539-0.804-0.751-1.339-0.751c-0.745,0-1.276,0.521-1.276,1.216c0,0.984,0.875,1.133,2.099,1.537
		c1.646,0.54,2.412,1.157,2.412,2.697C154.958,96.521,153.58,97.697,151.78,97.695z"/>
</g>
<g id="Myspace">
	<path id="Myspace__x28_alt_x29__3_" fill="#282828" d="M204.504,90.78c-0.996,0-1.803-0.806-1.803-1.798
		c0-0.994,0.808-1.799,1.803-1.799s1.803,0.805,1.803,1.799C206.307,89.974,205.5,90.78,204.504,90.78L204.504,90.78z
		 M203.03,92.513c0-0.993-0.807-1.798-1.803-1.798c-0.996,0-1.802,0.805-1.802,1.798c0,0.041,0.003,0.08,0.006,0.12h-0.006v3.117
		h3.605v-3.117h-0.006C203.026,92.593,203.03,92.554,203.03,92.513L203.03,92.513z M201.227,90.475c0.73,0,1.322-0.591,1.322-1.319
		c0-0.729-0.592-1.319-1.322-1.319s-1.322,0.59-1.322,1.319C199.905,89.884,200.497,90.475,201.227,90.475L201.227,90.475z
		 M206.962,93.56c0-1.355-1.1-2.453-2.458-2.453s-2.458,1.098-2.458,2.453c0,0.055,0.004,0.109,0.008,0.163h-0.008v4.251h4.916
		v-4.251h-0.008C206.958,93.669,206.962,93.615,206.962,93.56L206.962,93.56z M198.605,90.518c-0.815,0-1.475,0.658-1.475,1.471
		c0,0.034,0.003,0.066,0.005,0.099h-0.005v2.55h2.95v-2.55h-0.005c0.002-0.033,0.005-0.065,0.005-0.099
		C200.08,91.176,199.419,90.518,198.605,90.518L198.605,90.518z M198.605,90.322c0.597,0,1.082-0.484,1.082-1.08
		c0-0.596-0.485-1.079-1.082-1.079c-0.597,0-1.082,0.483-1.082,1.079C197.523,89.838,198.008,90.322,198.605,90.322L198.605,90.322z
		"/>
</g>
<g id="Newsvine">
	<path id="Newsvine_3_" fill="#282828" d="M258.195,94.817l1.904-1.38c0.174,0.11,0.379,0.175,0.6,0.175
		c0.621,0,1.125-0.504,1.125-1.127c0-0.622-0.504-1.125-1.125-1.125c-0.622,0-1.126,0.504-1.126,1.125
		c0,0.047,0.004,0.093,0.009,0.14l-1.386,1.004v-3.133l1.918-1.391c0.172,0.104,0.371,0.166,0.585,0.166
		c0.621,0,1.125-0.504,1.125-1.126s-0.504-1.126-1.125-1.126c-0.622,0-1.126,0.505-1.126,1.126c0,0.052,0.004,0.105,0.012,0.155
		l-1.389,1.007v-4.754h-1.097v2.51l-1.397-1.011c0.013-0.068,0.02-0.136,0.02-0.208c0-0.622-0.505-1.126-1.127-1.126
		c-0.621,0-1.125,0.504-1.125,1.126c0,0.621,0.503,1.126,1.125,1.126c0.197,0,0.381-0.051,0.542-0.139l1.962,1.42v3.133l-1.395-1.01
		c0.011-0.062,0.018-0.125,0.018-0.189c0-0.624-0.505-1.127-1.127-1.127c-0.621,0-1.125,0.503-1.125,1.127
		c0,0.621,0.503,1.125,1.125,1.125c0.203,0,0.393-0.054,0.557-0.147l1.948,1.41v3.341l-1.394-1.009
		c0.01-0.061,0.016-0.122,0.016-0.185c0-0.622-0.505-1.126-1.127-1.126c-0.621,0-1.125,0.505-1.125,1.126s0.503,1.125,1.125,1.125
		c0.205,0,0.396-0.055,0.561-0.15l1.944,1.407v3.347h0.091h0.962h0.043v-1.103l1.9-1.375c0.174,0.11,0.381,0.176,0.604,0.176
		c0.621,0,1.125-0.504,1.125-1.126c0-0.622-0.504-1.125-1.125-1.125c-0.622,0-1.126,0.503-1.126,1.125
		c0,0.045,0.004,0.09,0.008,0.134l-1.385,1.004V94.817z"/>
</g>
<g id="Picasa">
	<path fill="#282828" d="M315.02,87.92c1.761,1.07,2.851,2.99,2.851,5.04c0,0.66-0.181,1.472-0.391,2.103c-0.1,0-2.34,0-2.46,0
		c0-0.07,0-1.902,0-3.612C315.02,89.75,315.02,88.04,315.02,87.92z"/>
	<path fill="#282828" d="M314.188,87.479v3.696L310.01,87.4c0.63-0.23,1.29-0.35,1.96-0.35
		C312.67,87.05,313.537,87.229,314.188,87.479z"/>
	<path fill="#282828" d="M309.875,96h7.135c-0.96,1.61-2.649,2.68-4.5,2.85h-1.08c-0.489-0.05-1.095-0.242-1.555-0.413V96z"/>
	<path fill="#282828" d="M309.01,87.85l2.3,2.06c-0.93,0.86-4.89,4.46-5.029,4.59c-0.13-0.52-0.21-1.03-0.21-1.54
		C306.07,90.83,307.19,88.91,309.01,87.85z"/>
	<path fill="#282828" d="M308.93,93.5c0,1.3,0,4.32,0,4.51c-0.97-0.59-1.76-1.45-2.26-2.46L308.93,93.5z"/>
</g>
<g id="Technorati">
	<path id="Technorati_2_" fill="#282828" d="M363.133,87.042c0.596-0.069,1.424-0.027,2.021-0.042
		c-0.605,0.759-1.131,1.63-1.217,2.62c-0.177,1.524,0.604,3.025,1.781,3.96c0.311,0.178,0.197,0.559,0.187,0.85
		c-0.075,0.726-0.408,1.446-0.459,2.174c0.921-0.533,1.744-1.23,2.687-1.72c1.904,0.36,3.978,0.143,5.634-0.918
		c0,0.838,0.002,1.676,0.003,2.515c0.021,0.96-0.567,1.903-1.446,2.291c-0.406,0.205-0.867,0.241-1.313,0.228
		c-2.522-0.01-5.046,0.001-7.568-0.004c-1.266-0.008-2.373-1.141-2.376-2.404c-0.009-2.323,0.006-4.646,0.004-6.97
		C361.001,88.41,361.952,87.258,363.133,87.042z M366.456,88.676c-0.423,0.439-0.725,1.023-0.729,1.644
		c-0.047,0.844,0.424,1.647,1.08,2.148c1.392,1.058,3.418,1.142,4.93,0.292c0.836-0.464,1.519-1.325,1.531-2.313
		c0.032-0.875-0.477-1.698-1.177-2.191c-0.784-0.577-1.774-0.827-2.739-0.79C368.281,87.482,367.196,87.887,366.456,88.676z"/>
</g>
<g id="Rss">
	<path id="RSS_2_" fill="#282828" d="M419.577,95.502c0.266,0.266,0.429,0.627,0.43,1.029c-0.001,0.401-0.164,0.762-0.429,1.027
		l-0.001,0c-0.266,0.265-0.629,0.427-1.033,0.427c-0.403,0-0.766-0.163-1.031-0.427c-0.266-0.265-0.429-0.625-0.429-1.027
		s0.163-0.764,0.429-1.029v0c0.266-0.265,0.628-0.429,1.031-0.429C418.948,95.074,419.311,95.238,419.577,95.502z M419.577,95.502
		L419.577,95.502C419.578,95.502,419.578,95.502,419.577,95.502L419.577,95.502z M417.513,97.559L417.513,97.559
		C417.512,97.559,417.512,97.559,417.513,97.559L417.513,97.559z M417.085,90.74v2.1c1.371,0.001,2.668,0.54,3.639,1.511
		c0.971,0.969,1.507,2.268,1.509,3.644l0,0v0.004h2.109c-0.002-2-0.814-3.812-2.13-5.128
		C420.897,91.555,419.086,90.741,417.085,90.74z M417.089,87v2.099c4.901,0.003,8.886,3.994,8.889,8.9h2.105
		c-0.002-3.032-1.234-5.779-3.226-7.772C422.865,88.234,420.12,87.001,417.089,87z"/>
</g>
<g id="Rdio">
	<path id="Rdio_2_" fill="#282828" d="M483.09,91.785c0.034,0.24,0.054,0.487,0.054,0.735c0,2.934-2.48,5.312-5.535,5.312
		c-3.056,0-5.533-2.378-5.533-5.312c0-2.933,2.478-5.312,5.533-5.312c0.599,0,0.811,0.123,1.35,0.292l0.001,3.21
		c0,0-1.281-0.932-2.757,0.127c-1.474,1.059-1.196,2.169-1.196,2.169s0.068,1.754,2.15,1.754c2.325,0,2.985-2.118,2.985-2.118
		v-4.844c0.448,0.222,0.865,0.499,1.267,0.812c0.989,0.612,2.015,1.007,3.191,0.977c0,0,0.225-0.049,0.225,0.398
		c0,0.244-0.086,0.521-0.329,0.783C484.495,90.769,484.032,91.459,483.09,91.785"/>
</g>
<g id="ShareThis">
	<path id="ShareThis_2_" fill="#282828" d="M530.324,93c0,0.042-0.009,0.08-0.011,0.121l4.233,2.149
		c0.362-0.312,0.825-0.506,1.337-0.506c1.151,0,2.085,0.948,2.085,2.118c0,1.17-0.934,2.119-2.085,2.119
		c-1.152,0-2.083-0.948-2.083-2.119c0-0.042,0.008-0.08,0.01-0.121l-4.232-2.149c-0.363,0.311-0.825,0.505-1.337,0.505
		c-1.151,0-2.085-0.947-2.085-2.116c0-1.171,0.934-2.119,2.085-2.119c0.512,0,0.974,0.196,1.337,0.506l4.232-2.149
		c-0.002-0.041-0.01-0.08-0.01-0.122c0-1.168,0.931-2.116,2.083-2.116c1.151,0,2.085,0.948,2.085,2.116
		c0,1.171-0.934,2.119-2.085,2.119c-0.513,0-0.975-0.196-1.337-0.508l-4.233,2.15C530.315,92.919,530.324,92.958,530.324,93z"/>
</g>
<g id="Skype">
	<path id="Skype_2_" fill="#282828" d="M42.419,148.904c0.044-0.281,0.068-0.569,0.068-0.863c0-3.053-2.475-5.529-5.529-5.529
		c-0.293,0-0.582,0.024-0.863,0.068c-0.509-0.315-1.11-0.498-1.754-0.498c-1.846,0-3.341,1.496-3.341,3.341
		c0,0.644,0.183,1.244,0.497,1.754c-0.043,0.282-0.067,0.568-0.067,0.862c0,3.053,2.475,5.528,5.528,5.528
		c0.293,0,0.582-0.023,0.863-0.067c0.51,0.314,1.11,0.497,1.754,0.497c1.846,0,3.341-1.496,3.341-3.342
		C42.917,150.015,42.734,149.414,42.419,148.904z M39.583,150.556c-0.234,0.337-0.578,0.6-1.026,0.789
		c-0.45,0.189-0.981,0.284-1.596,0.284c-0.735,0-1.345-0.129-1.826-0.389c-0.34-0.186-0.618-0.436-0.831-0.748
		c-0.214-0.312-0.322-0.617-0.322-0.915c0-0.176,0.067-0.329,0.198-0.453c0.131-0.125,0.301-0.188,0.501-0.188
		c0.164,0,0.305,0.049,0.419,0.147c0.114,0.098,0.209,0.24,0.288,0.428c0.093,0.218,0.195,0.399,0.303,0.544
		c0.108,0.143,0.259,0.263,0.455,0.357c0.194,0.093,0.452,0.14,0.775,0.14c0.441,0,0.798-0.095,1.072-0.284
		c0.274-0.19,0.407-0.421,0.407-0.702c0-0.223-0.071-0.4-0.217-0.538c-0.147-0.14-0.337-0.247-0.573-0.321
		c-0.237-0.075-0.555-0.155-0.953-0.239c-0.535-0.116-0.982-0.253-1.345-0.409c-0.363-0.157-0.652-0.371-0.866-0.641
		c-0.214-0.273-0.322-0.613-0.322-1.015c0-0.383,0.113-0.726,0.339-1.024c0.226-0.299,0.553-0.529,0.979-0.688
		c0.425-0.159,0.925-0.239,1.499-0.239c0.458,0,0.855,0.053,1.19,0.159c0.335,0.106,0.614,0.247,0.836,0.422
		c0.222,0.176,0.385,0.361,0.488,0.555c0.103,0.195,0.155,0.385,0.155,0.571c0,0.173-0.067,0.33-0.197,0.467
		c-0.131,0.138-0.297,0.208-0.492,0.207c-0.176,0-0.313-0.041-0.41-0.126c-0.093-0.083-0.191-0.215-0.296-0.399
		c-0.133-0.257-0.293-0.457-0.479-0.601c-0.182-0.141-0.481-0.214-0.897-0.213c-0.385,0-0.693,0.079-0.926,0.232
		c-0.233,0.157-0.346,0.338-0.346,0.551c0,0.133,0.039,0.245,0.116,0.341c0.078,0.097,0.187,0.181,0.327,0.252
		c0.14,0.071,0.283,0.127,0.425,0.167c0.145,0.041,0.385,0.1,0.719,0.179c0.419,0.09,0.799,0.191,1.14,0.301
		c0.34,0.11,0.631,0.244,0.871,0.402c0.242,0.158,0.431,0.36,0.566,0.604c0.136,0.244,0.204,0.542,0.204,0.893
		C39.935,149.84,39.817,150.22,39.583,150.556z"/>
</g>
<g id="SlideShare">
	<path id="SlideShare_2_" fill="#282828" d="M100.017,145.815c-0.598,1.146-1.846,1.496-3.067,2.136c0,0.903,0,2.125,0,2.475
		c0,0.349-0.449,2.379-2.164,2.379c-1.716,0-2.282-0.982-2.282-1.389c0-0.198,0-1.257,0-2.293c-0.168-0.041-0.334-0.098-0.494-0.182
		c0,0.933,0,2.068,0,2.475c0,0.408-0.639,0.99-1.481,0.99c-0.843,0-2.47-1.193-2.47-1.98c0-0.786,0-2.68,0-2.68
		s-2.255-0.883-2.779-1.524c-0.523-0.641-0.785-0.903-0.64-1.28c0.14-0.366,1.832,1.047,2.819,1.28
		c0.989,0.234,2.703,0.35,3.431,0.321c0.727-0.029,1.134,0.262,1.54,0.64c0.022,0.02,0.047,0.042,0.074,0.062
		c0-0.174,0-0.285,0-0.285c0-0.349,0.93-0.495,1.482-0.495c0.553,0,2.179,0,2.47,0s2.544-0.739,3.067-1.322
		C100.046,144.563,100.58,144.737,100.017,145.815z M94.81,145.659c0.955,0,1.729-0.776,1.729-1.732
		c0-0.957-0.774-1.732-1.729-1.732s-1.729,0.775-1.729,1.732C93.081,144.883,93.855,145.659,94.81,145.659z M90.253,145.659
		c0.955,0,1.729-0.776,1.729-1.732c0-0.957-0.774-1.732-1.729-1.732c-0.955,0-1.729,0.775-1.729,1.732
		C88.525,144.883,89.299,145.659,90.253,145.659z"/>
</g>
<g id="Squidoo">
	<path id="Squidoo_2_" fill-rule="evenodd" clip-rule="evenodd" fill="#282828" d="M152.188,150.045
		c-0.197,0.659-0.821,1.056-1.393,0.883c-0.573-0.172-0.877-0.845-0.68-1.504c0.197-0.66,0.82-1.055,1.394-0.883
		C152.081,148.712,152.385,149.385,152.188,150.045z M149.774,153.125c-1.413-0.159-2.458-1.347-2.708-2.713
		c-0.157-0.856,0.022-1.484-0.542-1.695c-0.986-0.371-2.275,0.288-3.52,0.136c-1.142-0.141-1.994-1.006-2.031-2.442
		c-0.033-1.318,0.931-3.123-0.406-3.729c0.568,0.119,1.038,0.243,1.287,0.745c0.532,1.074-0.308,3.152,0.609,3.731
		c0.451,0.284,1.267,0.141,1.827,0.068c0.64-0.082,1.086-0.283,1.692-0.271c-0.352-0.48-0.902-0.594-1.286-0.881
		c-0.461-0.345-1.117-0.966-1.422-1.561c-0.534-1.04-0.441-2.913-1.219-3.595c-0.59-0.518-1.574-0.529-2.572-0.339
		c0.693-0.584,2.454-0.683,3.114-0.204c0.887,0.646,0.697,2.452,1.49,3.392c0.358,0.424,0.889,0.587,1.286,0.746
		c0.453,0.181,0.943,0.357,1.625,0.408c0.516-2.243-1.222-2.549-2.301-3.527c-0.806-0.73-1.342-1.59-1.219-3.392
		c0.172,0.94,0.353,1.711,1.016,2.238c0.446,0.354,1.067,0.467,1.557,0.746c1.18,0.671,2.252,1.76,2.573,3.391
		c0.255-0.145,0.436-0.492,0.676-0.814c0.234-0.312,0.53-0.581,0.542-1.018c0.016-0.625-0.427-1.12-0.812-1.424
		c-0.942-0.743-2.675-0.555-2.302-2.578c0.168,0.504,0.205,1.065,0.61,1.357c0.578,0.417,1.491,0.416,2.166,0.814
		c0.593,0.349,1.493,1.132,1.489,2.17c-0.004,1.173-1.174,1.639-0.677,2.985c1.168,0.319,1.754,0.346,2.37,0.882
		C155.093,148.843,153.327,153.525,149.774,153.125z M153.021,150.325c0.461-1.544-0.252-3.123-1.593-3.526
		c-1.341-0.402-2.803,0.525-3.264,2.069c-0.461,1.545,0.251,3.124,1.593,3.526C151.098,152.796,152.56,151.869,153.021,150.325z"/>
</g>
<g id="StumbleUpon">
	<path id="StumbleUpon_2_" fill="#282828" d="M207.924,149.69c0,1.273-1.037,2.31-2.311,2.31h-0.379c-1.274,0-2.31-1.037-2.31-2.31
		V147c0-0.447-0.345-0.519-0.792-0.519h-3.127c-0.448,0-0.831,0.044-0.831,0.458c0,0.427,0.389,0.62,0.849,0.643l0.477,0.025
		c1.264,0.066,2.262,1.081,2.221,2.262c-0.039,1.175-1.097,2.131-2.357,2.131H195v-1.5h4.363c0.453,0,0.847-0.311,0.858-0.68
		c0.012-0.365-0.354-0.69-0.801-0.714l-0.476-0.025c-1.251-0.064-2.269-0.922-2.269-2.141c0-1.241,1.036-1.939,2.311-1.939h3.127
		c1.275,0,2.312,0.726,2.312,2v2.69c0,0.447,0.363,0.81,0.809,0.81h0.379c0.446,0,0.811-0.363,0.811-0.81V140h1.333
		c0.057,0,0.11,0.014,0.167,0.018V149.69z"/>
</g>
<g id="WhatsApp_1_">
	<path id="WhatsApp" fill-rule="evenodd" clip-rule="evenodd" fill="#282828" d="M264,147.939c0,3.282-2.68,5.941-5.987,5.941
		c-1.048,0-2.035-0.269-2.893-0.74l-3.314,1.053l1.081-3.187c-0.545-0.895-0.859-1.945-0.859-3.068c0-3.279,2.68-5.939,5.986-5.939
		C261.32,142,264,144.66,264,147.939z M258.013,142.946c-2.775,0-5.032,2.241-5.032,4.993c0,1.094,0.355,2.106,0.959,2.929
		l-0.629,1.854l1.934-0.615c0.795,0.522,1.747,0.827,2.769,0.827c2.776,0,5.034-2.24,5.034-4.995
		C263.047,145.187,260.789,142.946,258.013,142.946z M261.037,149.309c-0.037-0.061-0.135-0.098-0.281-0.17
		c-0.147-0.073-0.868-0.425-1.003-0.473c-0.134-0.049-0.232-0.073-0.331,0.072c-0.098,0.146-0.378,0.474-0.464,0.572
		c-0.085,0.097-0.171,0.109-0.317,0.036c-0.147-0.072-0.62-0.226-1.181-0.722c-0.436-0.386-0.731-0.862-0.816-1.009
		c-0.086-0.145-0.009-0.224,0.064-0.296c0.066-0.065,0.146-0.169,0.22-0.254c0.073-0.085,0.098-0.146,0.146-0.243
		c0.049-0.098,0.024-0.183-0.012-0.256c-0.037-0.072-0.33-0.789-0.452-1.08c-0.123-0.292-0.244-0.243-0.33-0.243
		c-0.086,0-0.184-0.012-0.282-0.012c-0.098,0-0.257,0.037-0.391,0.182c-0.135,0.146-0.513,0.499-0.513,1.214
		c0,0.717,0.525,1.41,0.598,1.507c0.074,0.097,1.016,1.615,2.506,2.198c1.493,0.583,1.493,0.388,1.762,0.364
		c0.27-0.024,0.868-0.353,0.991-0.692C261.074,149.66,261.074,149.369,261.037,149.309z"/>
</g>
<g id="WordPress">
	<path id="WordPress__x28_alt_x29__2_" fill-rule="evenodd" clip-rule="evenodd" fill="#282828" d="M307.698,144.864
		c0.91-1.699,2.737-2.81,4.844-2.81c1.363,0,2.609,0.581,3.565,1.401c-0.272-0.053-0.571,0.006-0.871,0.179
		c-0.704,0.403-0.934,1.546-0.022,2.12c0.57,0.356,0.773,1.248,0.755,1.793c-0.021,0.545-1.325,3.05-1.325,3.05l-1.271-4.366
		c0,0-0.044-0.306-0.044-0.394c0-0.112,0.037-0.249,0.105-0.326c0.048-0.051,0.119-0.16,0.205-0.16h0.603v-0.486h-3.276v0.486h0.102
		c0.107,0,0.213,0.144,0.312,0.248c0.12,0.124,0.271,0.588,0.453,1.071l0.476,1.569l-1.026,2.373l-1.125-4.742
		c0,0,0.032-0.325,0.102-0.38c0.044-0.038,0.111-0.138,0.191-0.138h0.03v-0.486H307.698z M308.341,145.688
		c0,0-0.265-0.338-0.547-0.338h-0.284c-0.277,0.606-0.429,1.421-0.429,2.168c0,2.247,1.379,4.173,3.341,4.996L308.341,145.688z
		 M317.242,144.821c0.104,0.492,0.081,1.09-0.12,1.747c-0.529,1.709-1.835,4.784-2.342,5.956c1.899-0.848,3.223-2.741,3.223-4.942
		C318.003,146.573,317.726,145.63,317.242,144.821z M312.652,149.437l-1.396,3.411c0.412,0.099,0.843,0.152,1.286,0.152
		c0.459,0,0.904-0.057,1.329-0.163L312.652,149.437z"/>
</g>
<g id="Youtube">
	<path id="YouTube__x28_alt_x29__2_" fill-rule="evenodd" clip-rule="evenodd" fill="#282828" d="M375.919,144.545
		c0-1.405-1.139-2.545-2.544-2.545h-11.774c-1.404,0-2.544,1.14-2.544,2.545v6.826c0,1.405,1.14,2.545,2.544,2.545h11.774
		c1.405,0,2.544-1.14,2.544-2.545V144.545z M365.866,150.838v-6.411l4.862,3.206L365.866,150.838z"/>
</g>
<g id="Digg">
	<path id="Digg__x28_alt_x29__3_" fill-rule="evenodd" clip-rule="evenodd" fill="#282828" d="M429.772,144.486h-0.947v0.002h-0.944
		l0.037-2.457h-0.786h-0.026h-4.022v0.905l-0.037,1.514h-0.974h-0.005l-1.005-0.01l0.021,3.6l-4.075,0.01l-0.021-3.6h-0.897v3.469
		l0.918,0.149l-0.021,0.775h1.608l0.021,1.273h-0.574l-0.062,0.792l2.048,0.04l0.033,2.081h-2.139l0.021-1.969h-0.917l-0.021,2.911
		h0.917h2.139h0.003h0.916l0.021-2.911l-1.083-0.125l0.062-0.792l-0.57-0.027l-0.021-1.273h2.722v5.1l0.806-0.01v0.01l6.072,0.01
		v-0.925v-4.396h0.784V144.486z M427.105,142.938l-0.001,3.091l-3.168,0.021l0.001-3.091L427.105,142.938z M425.917,153v-2.584
		h-0.832V153l-2.14,0.021v-4.186v-0.009l-0.028-0.785l-0.945-0.039l0.028-2.639l1.046,0.049l0.036,1.558h0.905h0.017h3.101h0.026
		h0.786l-0.036-1.558l1.202,0.024l-0.028,2.657l-1.028-0.024l0.028,4.961L425.917,153z M420.062,144.958l-0.02-0.99l0.999-0.01
		l0.02,0.99L420.062,144.958z M420.043,143.969h-2.142v-0.943h2.142V143.969z M417.921,144.958h-0.935l-0.02-0.99h0.935
		L417.921,144.958z"/>
</g>
<g id="Behance">
	<path id="Behance_3_" fill="#282828" d="M483.409,144.412h-3.991v-0.998h3.991V144.412z M476.763,148.503
		c0.257,0.401,0.386,0.889,0.386,1.461c0,0.592-0.145,1.123-0.44,1.592c-0.188,0.311-0.421,0.572-0.701,0.784
		c-0.315,0.244-0.688,0.411-1.117,0.5c-0.431,0.09-0.898,0.135-1.398,0.135h-4.464V143h4.785c1.207,0.02,2.062,0.371,2.566,1.062
		c0.302,0.424,0.453,0.932,0.453,1.523c0,0.61-0.153,1.098-0.458,1.468c-0.169,0.208-0.422,0.397-0.753,0.568
		C476.124,147.808,476.508,148.101,476.763,148.503z M471.312,146.933h2.098c0.432,0,0.779-0.083,1.049-0.247
		c0.267-0.165,0.399-0.458,0.399-0.877c0-0.464-0.176-0.771-0.53-0.919c-0.306-0.104-0.697-0.156-1.17-0.156h-1.846V146.933z
		 M475.061,149.822c0-0.519-0.21-0.877-0.63-1.069c-0.235-0.109-0.565-0.164-0.991-0.168h-2.128v2.658h2.095
		c0.431,0,0.765-0.056,1.003-0.175C474.844,150.85,475.061,150.436,475.061,149.822z M484.889,148.199
		c0.048,0.327,0.07,0.8,0.062,1.419h-5.168c0.028,0.718,0.275,1.221,0.742,1.508c0.28,0.181,0.622,0.268,1.023,0.268
		c0.42,0,0.765-0.107,1.03-0.328c0.143-0.117,0.271-0.282,0.38-0.491h1.895c-0.052,0.424-0.278,0.855-0.688,1.292
		c-0.635,0.695-1.525,1.043-2.669,1.043c-0.944,0-1.778-0.293-2.501-0.879c-0.72-0.587-1.081-1.541-1.081-2.862
		c0-1.24,0.325-2.188,0.977-2.849c0.654-0.663,1.498-0.991,2.538-0.991c0.616,0,1.175,0.111,1.67,0.334
		c0.494,0.224,0.902,0.575,1.226,1.058C484.614,147.147,484.802,147.639,484.889,148.199z M483.025,148.385
		c-0.034-0.497-0.2-0.872-0.496-1.129c-0.295-0.258-0.661-0.388-1.101-0.388c-0.476,0-0.845,0.138-1.107,0.411
		c-0.262,0.271-0.427,0.639-0.494,1.106H483.025z"/>
</g>
<g id="Yahoo">
	<path id="Yahoo_x21__2_" fill="#282828" d="M536.273,145.459c-0.397,0.108-4.05,2.939-4.289,3.634
		c-0.054,0.24,0.004,2.566,0.059,2.916c0.24,0.054,1.977,0.007,2.295,0.06l-0.037,0.72c-0.312-0.024-2.521-0.019-3.779-0.019
		c-0.639,0-2.696,0.071-3.327,0.052l0.118-0.685c0.348-0.026,1.782,0.063,2.096-0.271c0.156-0.167,0.108-2.378,0.056-2.752
		c-0.135-0.399-3.334-4.409-4.169-5.065h-2.155v-1.008h7.268v0.07c0.007,0,0.017,0.001,0.024,0.002l-0.024,0.17v0.765h-2.191
		c0.976,1.428,2.376,3.153,2.974,3.981l2.928-2.653h-1.74l-0.245-1.006h6.374l-0.049,0.072c0.006,0,0.017,0.001,0.023,0.001
		l-0.455,0.66c-0.004,0-0.012,0.001-0.015,0.002l-0.184,0.271h-1.176C536.499,145.412,536.365,145.442,536.273,145.459z
		 M538.354,151.771l-0.562-0.027l-0.627-0.076l0.004,1.076l0.496,0.042l0.533,0.04L538.354,151.771z M539.446,146.628
		c-0.19-0.007-1.917-0.17-2.143-0.215l0.028,4.546l0.978,0.079L539.446,146.628z"/>
</g>
<g id="Blogger">
	<path id="Blogger_3_" fill="#282828" d="M39.13,209c2.07,0,3.752-1.687,3.764-3.746l0.023-3.031l-0.035-0.165l-0.1-0.208
		l-0.168-0.13c-0.219-0.171-1.326,0.012-1.624-0.259c-0.211-0.193-0.244-0.542-0.308-1.015c-0.119-0.916-0.194-0.964-0.337-1.274
		c-0.521-1.103-1.936-1.932-2.907-2.046h-2.631c-2.07,0-3.763,1.689-3.763,3.752v4.376c0,2.059,1.693,3.746,3.763,3.746H39.13z
		 M34.721,200h2.086c0.398,0,0.721,0.324,0.721,0.716c0,0.392-0.322,0.718-0.721,0.718h-2.086c-0.398,0-0.721-0.326-0.721-0.718
		C34,200.324,34.322,200,34.721,200z M34.141,205.349c0-0.393,0.322-0.713,0.721-0.713h4.24c0.396,0,0.717,0.321,0.717,0.713
		c0,0.388-0.321,0.714-0.717,0.714h-4.24C34.463,206.062,34.141,205.736,34.141,205.349z"/>
</g>
<g id="Hype_Machine">
	<path id="Hype_Machine_3_" fill-rule="evenodd" clip-rule="evenodd" fill="#282828" d="M92.008,197.142
		c-4.381,0-7.934,2.622-7.934,5.856c0,1.74,1.029,3.302,2.661,4.374c-0.148,0.817-0.432,1.803-0.97,2.597
		c0.701,0,2.466-0.804,3.716-1.421c0.793,0.197,1.643,0.305,2.527,0.305c4.382,0,7.934-2.622,7.934-5.855
		C99.942,199.763,96.391,197.142,92.008,197.142z M95.806,203.081c-0.027,0.111-0.077,0.229-0.155,0.356
		c-0.142,0.267-0.336,0.502-0.567,0.696c-1.113,1.148-3.079,2.433-3.079,2.433s-1.966-1.286-3.079-2.433
		c-0.231-0.193-0.425-0.429-0.569-0.696c-0.077-0.127-0.125-0.246-0.153-0.356c-0.079-0.232-0.122-0.481-0.122-0.74
		c0-1.298,1.066-2.351,2.381-2.351c0.885,0,1.54,0.94,1.54,1.567c0-0.627,0.33-1.567,1.543-1.567c1.316,0,2.382,1.053,2.382,2.351
		C95.928,202.6,95.884,202.849,95.806,203.081z"/>
</g>
<g id="Grooveshark">
	<path id="Grooveshark_3_" fill-rule="evenodd" clip-rule="evenodd" fill="#282828" d="M147.5,196.021
		c-3.578,0-6.479,2.901-6.479,6.479c0,3.579,2.901,6.479,6.479,6.479c3.579,0,6.479-2.901,6.479-6.479
		C153.979,198.921,151.078,196.021,147.5,196.021z M150.989,204.493c-0.5,0-0.998-0.996-0.998-0.996s-0.708-2.494-3.986-2.99
		c0.289,4.484-1.371,3.945-1.995,3.986c-0.623,0.042-0.985-0.862-0.985-1.993c0-2.47,2.004-4.474,4.474-4.474
		c2.47,0,4.415,2.004,4.475,4.474C151.986,202.999,151.488,204.493,150.989,204.493z"/>
</g>
<g id="SoundCloud">
	<path id="SoundCloud_2_" fill="#282828" d="M192.658,204.707c0,0.718,0.327,1.361,0.842,1.793v-3.586
		C192.985,203.346,192.658,203.988,192.658,204.707 M194.629,202.66c-0.061-0.039-0.121-0.075-0.187-0.107v4.433h0.891v-5.93
		C194.979,201.518,194.731,202.065,194.629,202.66 M196.359,200.222v6.764h0.891v-7.202
		C196.931,199.891,196.632,200.04,196.359,200.222 M198.046,199.599v7.387h0.892v-7.359c-0.183-0.027-0.371-0.041-0.562-0.041
		C198.264,199.585,198.154,199.59,198.046,199.599 M200.683,200.119c-0.291-0.172-0.579-0.308-0.912-0.398v7.265h1.312v-7.401
		C200.937,199.752,200.803,199.932,200.683,200.119 M201.937,199.137v7.848h8.463v-0.01c1.782-0.114,2.586-1.22,2.586-2.568
		c0-1.425-1.077-2.579-2.527-2.579c-0.372,0-0.678,0.076-1.002,0.215c-0.231-2.262-2.151-4.028-4.514-4.028
		C203.788,198.015,202.738,198.438,201.937,199.137"/>
</g>
<g id="Instagram">
	<path fill="#282828" d="M262,198v10h-10v-10H262 M261.606,197h-9.256c-0.723,0-1.308,0.585-1.308,1.308l0.029,9.304
		c0,0.723,0.585,1.308,1.308,1.308h9.256c0.723,0,1.308-0.585,1.308-1.308l-0.029-9.304C262.914,197.585,262.329,197,261.606,197
		L261.606,197z"/>
	<path fill="#282828" d="M257.007,200.784c1.178,0,2.135,0.958,2.135,2.136s-0.958,2.136-2.135,2.136s-2.135-0.958-2.135-2.136
		S255.829,200.784,257.007,200.784 M257.007,199.464c-1.908,0-3.455,1.547-3.455,3.456s1.547,3.456,3.455,3.456
		s3.455-1.547,3.455-3.456c0-0.761-0.246-1.465-0.663-2.036c-0.125-0.17-0.607,0.202-0.761,0.057
		c-0.154-0.145,0.021-0.809-0.158-0.925C258.341,199.667,257.698,199.464,257.007,199.464L257.007,199.464z"/>
	<path fill="#282828" d="M262.031,197.851v4.118h-2.42l-2.666-1.763l-2.73,1.763h-2.355v-4.118H262.031z M261.603,200.553v-1.833
		c0-0.145-0.116-0.261-0.259-0.261l-2.146-0.053c-0.143,0-0.26,0.116-0.26,0.261v1.833c0,0.143,0.117,0.26,0.26,0.26l2.146,0.053
		C261.487,200.812,261.603,200.696,261.603,200.553z"/>
	<path fill="#282828" d="M313.67,199H309v8h4.31c0.69,0,1.83-0.29,2.03-0.41c0.34-0.19,0.601-0.45,0.79-0.78
		c0.19-0.33,0.29-0.7,0.29-1.11c0-0.51-0.14-0.93-0.41-1.27c-0.26-0.33-0.689-0.57-1.26-0.7c0.38-0.13,0.67-0.31,0.86-0.54
		c0.29-0.33,0.439-0.74,0.439-1.21c0-0.56-0.21-1.03-0.62-1.41C315.02,199.19,314.43,199,313.67,199z M307,195h11c1.66,0,3,1.34,3,3
		v10c0,1.66-1.34,3-3,3h-11c-1.66,0-3-1.34-3-3v-10C304,196.34,305.34,195,307,195z"/>
	<path fill="#282828" d="M313.015,201.99c-0.15,0.14-0.41,0.2-0.8,0.2h-1.07v-1.51h1.09c0.37,0,0.63,0.07,0.78,0.2
		c0.149,0.13,0.229,0.31,0.229,0.54C313.244,201.67,313.164,201.86,313.015,201.99z"/>
	<path fill="#282828" d="M313.295,205.1c-0.171,0.15-0.471,0.22-0.891,0.22h-1.26v-1.61h1.25c0.43,0,0.729,0.07,0.91,0.21
		c0.17,0.15,0.25,0.33,0.25,0.57C313.555,204.74,313.475,204.95,313.295,205.1z"/>
</g>
</svg>
